<?xml version="1.0" encoding="UTF-8"?>
<!DOCTYPE svg PUBLIC "-//W3C//DTD SVG 1.1//EN" "http://www.w3.org/Graphics/SVG/1.1/DTD/svg11.dtd">
<svg version="1.2" width="6.01mm" height="6.01mm" viewBox="4850 4000 601 601" preserveAspectRatio="xMidYMid" fill-rule="evenodd" stroke-width="28.222" stroke-linejoin="round" xmlns="http://www.w3.org/2000/svg" xmlns:ooo="http://xml.openoffice.org/svg/export" xmlns:xlink="http://www.w3.org/1999/xlink" xmlns:presentation="http://sun.com/xmlns/staroffice/presentation" xmlns:smil="http://www.w3.org/2001/SMIL20/" xmlns:anim="urn:oasis:names:tc:opendocument:xmlns:animation:1.0" xmlns:svg="urn:oasis:names:tc:opendocument:xmlns:svg-compatible:1.0" xml:space="preserve">
 <defs class="EmbeddedBulletChars">
  <g id="bullet-char-template-57356" transform="scale(0.00048828125,-0.00048828125)">
   <path d="M 580,1141 L 1163,571 580,0 -4,571 580,1141 Z"/>
  </g>
  <g id="bullet-char-template-57354" transform="scale(0.00048828125,-0.00048828125)">
   <path d="M 8,1128 L 1137,1128 1137,0 8,0 8,1128 Z"/>
  </g>
  <g id="bullet-char-template-10146" transform="scale(0.00048828125,-0.00048828125)">
   <path d="M 174,0 L 602,739 174,1481 1456,739 174,0 Z M 1358,739 L 309,1346 659,739 1358,739 Z"/>
  </g>
  <g id="bullet-char-template-10132" transform="scale(0.00048828125,-0.00048828125)">
   <path d="M 2015,739 L 1276,0 717,0 1260,543 174,543 174,936 1260,936 717,1481 1274,1481 2015,739 Z"/>
  </g>
  <g id="bullet-char-template-10007" transform="scale(0.00048828125,-0.00048828125)">
   <path d="M 0,-2 C -7,14 -16,27 -25,37 L 356,567 C 262,823 215,952 215,954 215,979 228,992 255,992 264,992 276,990 289,987 310,991 331,999 354,1012 L 381,999 492,748 772,1049 836,1024 860,1049 C 881,1039 901,1025 922,1006 886,937 835,863 770,784 769,783 710,716 594,584 L 774,223 C 774,196 753,168 711,139 L 727,119 C 717,90 699,76 672,76 641,76 570,178 457,381 L 164,-76 C 142,-110 111,-127 72,-127 30,-127 9,-110 8,-76 1,-67 -2,-52 -2,-32 -2,-23 -1,-13 0,-2 Z"/>
  </g>
  <g id="bullet-char-template-10004" transform="scale(0.00048828125,-0.00048828125)">
   <path d="M 285,-33 C 182,-33 111,30 74,156 52,228 41,333 41,471 41,549 55,616 82,672 116,743 169,778 240,778 293,778 328,747 346,684 L 369,508 C 377,444 397,411 428,410 L 1163,1116 C 1174,1127 1196,1133 1229,1133 1271,1133 1292,1118 1292,1087 L 1292,965 C 1292,929 1282,901 1262,881 L 442,47 C 390,-6 338,-33 285,-33 Z"/>
  </g>
  <g id="bullet-char-template-9679" transform="scale(0.00048828125,-0.00048828125)">
   <path d="M 813,0 C 632,0 489,54 383,161 276,268 223,411 223,592 223,773 276,916 383,1023 489,1130 632,1184 813,1184 992,1184 1136,1130 1245,1023 1353,916 1407,772 1407,592 1407,412 1353,268 1245,161 1136,54 992,0 813,0 Z"/>
  </g>
  <g id="bullet-char-template-8226" transform="scale(0.00048828125,-0.00048828125)">
   <path d="M 346,457 C 273,457 209,483 155,535 101,586 74,649 74,723 74,796 101,859 155,911 209,963 273,989 346,989 419,989 480,963 531,910 582,859 608,796 608,723 608,648 583,586 532,535 482,483 420,457 346,457 Z"/>
  </g>
  <g id="bullet-char-template-8211" transform="scale(0.00048828125,-0.00048828125)">
   <path d="M -4,459 L 1135,459 1135,606 -4,606 -4,459 Z"/>
  </g>
  <g id="bullet-char-template-61548" transform="scale(0.00048828125,-0.00048828125)">
   <path d="M 173,740 C 173,903 231,1043 346,1159 462,1274 601,1332 765,1332 928,1332 1067,1274 1183,1159 1299,1043 1357,903 1357,740 1357,577 1299,437 1183,322 1067,206 928,148 765,148 601,148 462,206 346,322 231,437 173,577 173,740 Z"/>
  </g>
 </defs>
 <g class="Page">
  <g class="Group">
   <g class="com.sun.star.drawing.ClosedBezierShape">
    <g id="id3">
     <rect class="BoundingBox" stroke="none" fill="none" x="4850" y="4042" width="561" height="559"/>
     <path fill="rgb(255,255,255)" stroke="none" d="M 5178,4600 C 5090,4600 5008,4566 4946,4504 4884,4443 4850,4361 4850,4274 4850,4187 4884,4105 4946,4043 L 4964,4060 C 4907,4117 4875,4193 4875,4274 4875,4354 4906,4430 4964,4487 5021,4544 5097,4575 5178,4575 5259,4575 5335,4544 5392,4487 L 5410,4504 C 5347,4566 5265,4600 5178,4600 Z"/>
    </g>
   </g>
   <g class="com.sun.star.drawing.ClosedBezierShape">
    <g id="id4">
     <rect class="BoundingBox" stroke="none" fill="none" x="4899" y="4151" width="402" height="398"/>
     <path fill="rgb(255,255,255)" stroke="none" d="M 5174,4482 C 5181,4414 5150,4350 5100,4312 5073,4291 5039,4277 5003,4274 4994,4273 4987,4265 4988,4256 4989,4245 4998,4240 5007,4241 5046,4244 5082,4258 5112,4279 5177,4324 5217,4401 5208,4485 5207,4498 5204,4511 5201,4523 L 5250,4538 C 5265,4534 5280,4528 5294,4522 5297,4503 5300,4483 5300,4463 5299,4306 5183,4176 5031,4154 5013,4151 4994,4151 4981,4154 4959,4159 4941,4171 4926,4187 4910,4206 4900,4231 4900,4258 4900,4305 4931,4346 4974,4359 4982,4362 4995,4363 5001,4364 L 5002,4364 C 5049,4372 5085,4413 5085,4463 5085,4483 5080,4501 5069,4517 L 5104,4539 C 5121,4543 5138,4546 5155,4547 5165,4528 5172,4505 5174,4482 Z"/>
    </g>
   </g>
   <g class="com.sun.star.drawing.ClosedBezierShape">
    <g id="id5">
     <rect class="BoundingBox" stroke="none" fill="none" x="4963" y="4403" width="87" height="87"/>
     <path fill="rgb(255,255,255)" stroke="none" d="M 5049,4446 C 5049,4469 5030,4488 5006,4488 4983,4488 4964,4469 4964,4446 4964,4423 4983,4404 5006,4404 5030,4404 5049,4423 5049,4446 Z"/>
    </g>
   </g>
   <g class="com.sun.star.drawing.ClosedBezierShape">
    <g id="id6">
     <rect class="BoundingBox" stroke="none" fill="none" x="4984" y="4031" width="436" height="433"/>
     <path fill="rgb(255,255,255)" stroke="none" d="M 5418,4402 C 5391,4210 5239,4058 5046,4031 5023,4043 5002,4058 4984,4075 L 4984,4116 C 5176,4116 5333,4271 5333,4463 L 5373,4463 C 5392,4445 5406,4425 5418,4402 Z"/>
    </g>
   </g>
   <g class="com.sun.star.drawing.ClosedBezierShape">
    <g id="id7">
     <rect class="BoundingBox" stroke="none" fill="none" x="5139" y="4000" width="312" height="310"/>
     <path fill="rgb(255,255,255)" stroke="none" d="M 5450,4274 C 5450,4123 5327,4000 5175,4000 5165,4000 5156,4000 5146,4001 L 5140,4019 C 5275,4067 5383,4174 5430,4308 L 5449,4302 C 5449,4293 5450,4284 5450,4274 Z"/>
    </g>
   </g>
  </g>
 </g>
</svg>